<svg version="1.1" id="Layer_1" xmlns="http://www.w3.org/2000/svg" xmlns:xlink="http://www.w3.org/1999/xlink" x="0px" y="0px"
	 width="100%" viewBox="0 0 512 512" enable-background="new 0 0 512 512" xml:space="preserve">
<path fill="#CAD4FE" opacity="1.000000" stroke="none" 
	d="
M257.000000,1.000000 
	C331.020905,1.000000 405.041779,1.000000 479.235779,1.285189 
	C486.021423,5.877375 488.296509,11.772609 488.172852,19.796482 
	C487.737396,48.042854 488.005493,76.300072 488.005737,104.553169 
	C488.005798,111.018990 484.465942,116.469963 478.186279,117.874374 
	C473.298401,118.967529 468.122009,118.770546 462.604614,119.086807 
	C456.399017,119.066780 450.662628,119.106880 444.466309,119.081207 
	C391.139465,119.011261 338.272522,119.015083 285.405579,118.995514 
	C275.933533,118.992004 266.461578,118.891830 256.993774,118.377899 
	C256.998688,78.946350 256.999359,39.973175 257.000000,1.000000 
M285.734070,91.901733 
	C285.734070,80.856750 285.734070,69.811768 285.734070,58.766781 
	C287.516144,59.918839 288.389679,61.246635 289.190338,62.617012 
	C295.315674,73.101013 301.485535,83.559746 307.509186,94.101967 
	C309.504059,97.593224 311.897705,100.172935 316.228699,98.970558 
	C320.377136,97.818863 320.971954,94.400368 320.958862,90.645554 
	C320.907837,75.993080 320.938263,61.340313 320.938324,46.687653 
	C320.938324,41.858936 320.968384,37.029976 320.930023,32.201561 
	C320.885254,26.561646 318.463684,23.463057 314.237122,23.533766 
	C310.224121,23.600903 307.959961,26.591461 307.931061,31.981047 
	C307.898071,38.141651 307.923004,44.302559 307.922913,50.463337 
	C307.922791,55.985378 307.922882,61.507416 307.922882,67.029457 
	C306.095612,65.598167 305.125488,64.080536 304.219849,62.525368 
	C298.025879,51.888908 291.833252,41.251633 285.668335,30.598318 
	C283.866272,27.484268 281.551514,25.160595 277.648682,26.125895 
	C273.472961,27.158703 272.684204,30.409723 272.697662,34.250679 
	C272.764099,53.232300 272.752380,72.214333 272.708649,91.196083 
	C272.699219,95.284546 273.728088,98.634453 278.367554,99.137383 
	C282.876831,99.626190 285.082031,97.007645 285.734070,91.901733 
M353.130463,36.543205 
	C356.701508,36.543205 360.272552,36.543205 364.174286,36.543205 
	C364.174286,39.212639 364.174286,41.019062 364.174286,42.825481 
	C364.174500,58.791649 364.147339,74.757889 364.189423,90.723946 
	C364.204529,96.466225 366.571014,99.339172 370.955627,99.229568 
	C375.139435,99.124992 377.182709,96.457848 377.193787,90.831291 
	C377.225555,74.698875 377.205444,58.566353 377.205688,42.433872 
	C377.205688,40.652802 377.205658,38.871731 377.205658,36.549202 
	C381.286804,36.549202 384.748230,36.636623 388.203552,36.528381 
	C393.181580,36.372433 395.984253,33.964649 396.009613,30.016945 
	C396.034912,26.077700 393.215851,23.453047 388.290192,23.401854 
	C376.649475,23.280867 365.006470,23.325872 353.364777,23.380459 
	C349.300720,23.399515 345.974243,24.871237 345.645111,29.437481 
	C345.323181,33.903725 348.002777,36.082355 353.130463,36.543205 
z"/>
<path fill="#E6EAFF" opacity="1.000000" stroke="none" 
	d="
M256.531342,1.000000 
	C256.999359,39.973175 256.998688,78.946350 256.531067,118.453690 
	C226.400208,118.992180 196.736252,118.981697 167.072327,119.004807 
	C134.411163,119.030243 101.750046,119.086563 68.618767,119.069405 
	C62.402103,119.050133 56.655579,119.090889 50.453033,119.071342 
	C46.841465,119.007637 43.685257,119.044579 40.530491,118.993050 
	C32.018661,118.854027 26.001064,112.693222 26.000250,104.146255 
	C25.997484,75.081848 26.081802,46.017021 25.934093,16.953362 
	C25.901997,10.637551 27.946980,5.907334 33.557156,2.819252 
	C33.926624,2.615881 33.862465,1.624725 34.000000,1.000000 
	C108.020897,1.000000 182.041794,1.000000 256.531342,1.000000 
M151.542587,68.196480 
	C166.323288,66.609108 174.763840,57.701435 174.184036,44.301991 
	C173.643433,31.808455 163.649246,23.413544 149.173752,23.341583 
	C141.683380,23.304346 134.191986,23.274454 126.702324,23.356592 
	C120.115967,23.428825 117.979637,25.575098 117.958611,32.037769 
	C117.920692,43.689621 117.945305,55.341686 117.947868,66.993660 
	C117.949738,75.482903 117.733070,83.982483 118.122581,92.454071 
	C118.219406,94.560043 119.823639,97.347832 121.584999,98.401939 
	C123.153786,99.340797 126.632805,99.130424 127.941307,97.952553 
	C129.636368,96.426712 130.717682,93.471085 130.829849,91.073311 
	C131.183182,83.519859 130.960052,75.939438 130.960052,68.369461 
	C131.583450,67.930443 132.206863,67.491425 132.830261,67.052406 
	C133.905319,68.653221 134.797073,70.422218 136.085922,71.826874 
	C143.174469,79.552376 150.344986,87.202980 157.518158,94.850403 
	C161.815155,99.431511 165.438431,100.230270 168.620316,97.394905 
	C172.035477,94.351669 171.530884,90.747261 166.968842,85.791641 
	C161.786057,80.161713 156.589340,74.544586 151.542587,68.196480 
M211.821457,99.494118 
	C221.645874,99.420372 231.470764,99.382820 241.294479,99.254997 
	C245.198334,99.204208 247.703201,97.144249 247.902710,93.229286 
	C248.118393,88.997337 245.431900,86.664444 241.487518,86.404480 
	C236.346130,86.065620 231.167847,86.279755 226.005417,86.268730 
	C221.434158,86.258957 216.862854,86.266685 212.378815,86.266685 
	C212.378815,79.690094 212.378815,73.958496 212.378815,67.971474 
	C217.395538,67.971474 222.045242,68.018654 226.693558,67.958702 
	C231.719360,67.893883 234.944977,65.133095 234.790924,61.151863 
	C234.643372,57.339027 231.664169,55.032059 226.652252,54.974350 
	C221.888000,54.919495 217.122650,54.962543 212.314011,54.962543 
	C212.314011,48.542557 212.314011,42.791954 212.314011,36.900223 
	C213.574326,36.776421 214.544724,36.602020 215.515823,36.598114 
	C223.842957,36.564617 232.171341,36.639229 240.496948,36.517296 
	C244.618011,36.456944 247.648911,34.670013 247.943100,30.123680 
	C248.194870,26.232605 245.164627,23.443462 240.314148,23.388107 
	C228.990494,23.258875 217.663040,23.253139 206.339798,23.401367 
	C201.929825,23.459095 199.031601,25.730368 199.021347,30.477678 
	C198.976776,51.129402 198.976257,71.781349 199.027267,92.433052 
	C199.037445,96.554588 201.206512,98.942307 205.413147,99.244591 
	C207.239319,99.375809 209.072357,99.411873 211.821457,99.494118 
z"/>
<path fill="#000000" opacity="1.000000" stroke="none" 
	d="
M447.000000,513.000000 
	C320.644043,513.000000 194.288055,513.000000 67.394165,512.643860 
	C72.994766,507.471161 74.584061,501.072021 74.097359,493.536224 
	C73.638969,486.439056 73.997917,479.289093 74.461060,472.109863 
	C195.627274,472.025421 316.329712,471.993134 437.032166,471.967743 
	C438.028351,471.967529 439.024506,472.061188 440.013855,472.572662 
	C440.004974,481.446625 440.022400,489.859009 439.993530,498.271210 
	C439.976318,503.290039 441.363892,507.568878 445.781952,510.526062 
	C446.443542,510.968903 446.606415,512.156799 447.000000,513.000000 
z"/>
<path fill="#000000" opacity="1.000000" stroke="none" 
	d="
M463.073792,119.146942 
	C468.122009,118.770546 473.298401,118.967529 478.186279,117.874374 
	C484.465942,116.469963 488.005798,111.018990 488.005737,104.553169 
	C488.005493,76.300072 487.737396,48.042854 488.172852,19.796482 
	C488.296509,11.772609 486.021423,5.877375 479.704407,1.285189 
	C490.981598,1.000000 501.963226,1.000000 513.000000,1.000000 
	C513.000000,77.020889 513.000000,153.041779 512.714966,229.827393 
	C508.893860,227.033325 505.446136,223.280762 499.963898,222.956161 
	C493.732269,222.587219 487.378998,221.461288 481.290924,222.267624 
	C475.151062,223.080795 469.936035,226.663879 469.019562,233.753525 
	C468.453979,238.128555 468.311432,242.558273 467.544495,246.978516 
	C463.766296,247.545670 462.930176,246.008774 462.938995,242.818939 
	C463.052795,201.595123 463.048340,160.371002 463.073792,119.146942 
z"/>
<path fill="#000000" opacity="1.000000" stroke="none" 
	d="
M33.531342,1.000000 
	C33.862465,1.624725 33.926624,2.615881 33.557156,2.819252 
	C27.946980,5.907334 25.901997,10.637551 25.934093,16.953362 
	C26.081802,46.017021 25.997484,75.081848 26.000250,104.146255 
	C26.001064,112.693222 32.018661,118.854027 40.530491,118.993050 
	C43.685257,119.044579 46.841465,119.007637 50.489296,119.530167 
	C50.981575,162.248062 50.981575,204.446823 50.981575,246.948654 
	C48.980766,246.948654 47.507950,246.948654 46.019756,246.490250 
	C46.002777,243.369278 46.104961,240.701813 45.979210,238.045120 
	C45.661133,231.324860 42.932613,225.120392 36.466320,223.465073 
	C25.815128,220.738419 14.753273,219.785019 4.944903,227.016541 
	C3.618006,227.994858 2.314399,229.004745 0.999999,230.000000 
	C1.000000,153.666641 1.000000,77.333298 1.000000,1.000000 
	C11.765046,1.000000 22.413864,1.000000 33.531342,1.000000 
z"/>
<path fill="#000000" opacity="1.000000" stroke="none" 
	d="
M21.000000,513.000000 
	C14.343474,513.000000 7.686948,513.000000 1.000000,513.000000 
	C1.000000,423.979095 1.000000,334.958221 1.273943,245.175232 
	C2.347828,245.358185 3.147771,246.303223 3.960196,247.583984 
	C7.675256,253.869720 13.526913,255.788315 20.005724,255.941071 
	C29.990625,256.176514 39.984364,256.037231 49.979023,256.428162 
	C40.179012,274.831604 30.673822,293.035492 20.470760,310.839417 
	C12.903263,324.044403 8.406009,338.086426 7.086973,353.078156 
	C5.630050,369.637024 10.231923,385.362274 14.641397,401.260132 
	C14.211038,403.348663 14.016854,405.166595 14.015628,406.984680 
	C13.996442,435.442780 14.061345,463.901123 13.960675,492.358856 
	C13.935389,499.507080 14.324088,506.317230 20.558105,511.217316 
	C20.937864,511.515808 20.863218,512.392395 21.000000,513.000000 
z"/>
<path fill="#000000" opacity="1.000000" stroke="none" 
	d="
M513.000000,245.000000 
	C513.000000,334.333344 513.000000,423.666687 513.000000,513.000000 
	C506.585449,513.000000 500.261749,513.000000 493.431763,512.646362 
	C499.726776,506.095642 500.162384,498.072693 500.088989,489.553558 
	C499.850983,461.925323 500.017914,434.293701 499.962372,406.663544 
	C499.958527,404.753906 499.408569,402.845367 499.212158,400.569214 
	C500.446198,396.354034 501.620728,392.517273 502.708282,388.655975 
	C507.663208,371.063690 508.769165,353.344818 503.974518,335.547516 
	C499.756104,319.889099 491.041870,306.393341 483.130981,292.474396 
	C476.363190,280.566711 470.366547,268.220673 464.495026,256.042847 
	C474.702576,256.010162 484.452454,256.248077 494.182281,255.910141 
	C500.700409,255.683777 506.863953,254.044189 510.353729,247.070007 
	C511.436890,246.219223 512.218445,245.609619 513.000000,245.000000 
z"/>
<path fill="#424566" opacity="1.000000" stroke="none" 
	d="
M21.468657,513.000000 
	C20.863218,512.392395 20.937864,511.515808 20.558105,511.217316 
	C14.324088,506.317230 13.935389,499.507080 13.960675,492.358856 
	C14.061345,463.901123 13.996442,435.442780 14.015628,406.984680 
	C14.016854,405.166595 14.211038,403.348663 14.896501,401.542206 
	C17.309820,414.030121 19.077919,426.516388 20.997467,438.979279 
	C22.228973,446.975037 23.683657,454.936371 25.053432,463.267883 
	C27.525785,467.837494 30.544712,471.221954 36.301830,471.294312 
	C49.097683,471.654236 61.585987,471.732941 74.091034,471.907227 
	C74.107780,472.002808 73.997284,472.162354 73.997284,472.162354 
	C73.997917,479.289093 73.638969,486.439056 74.097359,493.536224 
	C74.584061,501.072021 72.994766,507.471161 66.928131,512.643860 
	C51.979103,513.000000 36.958210,513.000000 21.468657,513.000000 
z"/>
<path fill="#333756" opacity="1.000000" stroke="none" 
	d="
M499.112610,400.936340 
	C499.408569,402.845367 499.958527,404.753906 499.962372,406.663544 
	C500.017914,434.293701 499.850983,461.925323 500.088989,489.553558 
	C500.162384,498.072693 499.726776,506.095642 492.962708,512.646362 
	C477.979095,513.000000 462.958221,513.000000 447.468628,513.000000 
	C446.606415,512.156799 446.443542,510.968903 445.781952,510.526062 
	C441.363892,507.568878 439.976318,503.290039 439.993530,498.271210 
	C440.022400,489.859009 440.004974,481.446625 439.934753,472.491394 
	C439.862457,471.948486 439.886902,471.723022 440.358673,471.818970 
	C451.821442,471.942993 462.812653,472.006866 473.803253,471.954651 
	C475.203278,471.947998 476.600372,471.334625 478.390259,471.004547 
	C484.594391,470.611420 488.208527,467.460938 490.049072,461.635925 
	C491.719574,449.097717 493.248352,436.951752 495.027863,424.842590 
	C496.202972,416.846436 497.738464,408.903259 499.112610,400.936340 
z"/>
<path fill="#47B5FF" opacity="1.000000" stroke="none" 
	d="
M3.947714,247.248276 
	C3.147771,246.303223 2.347828,245.358185 1.273943,244.706573 
	C1.000000,240.310745 1.000000,235.621490 0.999999,230.466125 
	C2.314399,229.004745 3.618006,227.994858 4.944903,227.016541 
	C14.753273,219.785019 25.815128,220.738419 36.466320,223.465073 
	C42.932613,225.120392 45.661133,231.324860 45.979210,238.045120 
	C46.104961,240.701813 46.002777,243.369278 45.552216,246.552048 
	C31.382608,247.130920 17.665161,247.189606 3.947714,247.248276 
z"/>
<path fill="#2192FF" opacity="1.000000" stroke="none" 
	d="
M513.000000,244.533875 
	C512.218445,245.609619 511.436890,246.219223 509.885864,247.089935 
	C495.403931,247.221817 481.691437,247.092621 467.978943,246.963440 
	C468.311432,242.558273 468.453979,238.128555 469.019562,233.753525 
	C469.936035,226.663879 475.151062,223.080795 481.290924,222.267624 
	C487.378998,221.461288 493.732269,222.587219 499.963898,222.956161 
	C505.446136,223.280762 508.893860,227.033325 512.714966,230.296051 
	C513.000000,234.689255 513.000000,239.378510 513.000000,244.533875 
z"/>
<path fill="#000000" opacity="1.000000" stroke="none" 
	d="
M69.088913,119.129433 
	C101.750046,119.086563 134.411163,119.030243 167.072327,119.004807 
	C196.736252,118.981697 226.400208,118.992180 256.526855,118.912064 
	C266.461578,118.891830 275.933533,118.992004 285.405579,118.995514 
	C338.272522,119.015083 391.139465,119.011261 444.493408,119.539612 
	C444.963226,150.708374 444.946045,181.352951 444.597046,211.846405 
	C441.176727,204.561035 438.032013,197.450500 435.010956,190.287796 
	C428.015137,173.701172 418.249969,158.993256 403.595215,148.384521 
	C387.167114,136.492050 368.834106,129.279892 347.846008,129.516022 
	C317.412323,129.157333 287.205200,129.168564 256.535645,129.099945 
	C222.715607,129.401581 189.358063,129.783051 155.669525,130.092880 
	C154.892334,130.070114 154.446136,130.118973 153.628235,130.215469 
	C151.832413,130.563919 150.408295,130.864761 148.719482,131.132080 
	C148.262772,131.386078 148.070755,131.673584 147.504883,131.977509 
	C145.754211,132.384094 144.377396,132.774292 142.660248,133.091888 
	C141.533493,133.305618 140.747055,133.591980 139.569794,133.931519 
	C138.682739,134.009689 138.146133,133.919220 137.696136,134.076492 
	C124.885849,138.553604 113.148727,145.057663 103.337372,154.394424 
	C98.227852,159.256775 94.330544,165.392944 89.585297,171.075165 
	C88.817314,172.116699 88.349701,173.036804 87.562149,174.097321 
	C85.549622,177.492249 83.857040,180.746765 82.027832,184.305634 
	C81.554794,185.392258 81.218384,186.174545 80.572014,187.108215 
	C79.656586,188.928116 79.051117,190.596603 78.246643,192.544342 
	C77.659088,193.867996 77.270546,194.912415 76.561562,196.121674 
	C73.846481,201.519089 71.451843,206.751709 69.034157,211.517151 
	C69.037041,180.409805 69.062973,149.769623 69.088913,119.129433 
z"/>
<path fill="#424668" opacity="1.000000" stroke="none" 
	d="
M444.928833,211.997559 
	C444.946045,181.352951 444.963226,150.708374 444.953308,119.605385 
	C450.662628,119.106880 456.399017,119.066780 462.604614,119.086807 
	C463.048340,160.371002 463.052795,201.595123 462.938995,242.818939 
	C462.930176,246.008774 463.766296,247.545670 467.544464,246.978516 
	C481.691437,247.092621 495.403931,247.221817 509.584290,247.331100 
	C506.863953,254.044189 500.700409,255.683777 494.182281,255.910141 
	C484.452454,256.248077 474.702576,256.010162 464.270233,255.995270 
	C463.579224,255.973312 463.131531,255.871078 463.055084,255.660675 
	C462.857178,255.162079 462.654144,254.953186 462.271851,254.460251 
	C459.228119,246.921295 456.277802,239.747437 453.337402,232.569534 
	C450.529175,225.714401 447.731262,218.855057 444.928833,211.997559 
z"/>
<path fill="#444768" opacity="1.000000" stroke="none" 
	d="
M285.711060,92.337135 
	C285.082031,97.007645 282.876831,99.626190 278.367554,99.137383 
	C273.728088,98.634453 272.699219,95.284546 272.708649,91.196083 
	C272.752380,72.214333 272.764099,53.232300 272.697662,34.250679 
	C272.684204,30.409723 273.472961,27.158703 277.648682,26.125895 
	C281.551514,25.160595 283.866272,27.484268 285.668335,30.598318 
	C291.833252,41.251633 298.025879,51.888908 304.219849,62.525368 
	C305.125488,64.080536 306.095612,65.598167 307.922882,67.029457 
	C307.922882,61.507416 307.922791,55.985378 307.922913,50.463337 
	C307.923004,44.302559 307.898071,38.141651 307.931061,31.981047 
	C307.959961,26.591461 310.224121,23.600903 314.237122,23.533766 
	C318.463684,23.463057 320.885254,26.561646 320.930023,32.201561 
	C320.968384,37.029976 320.938324,41.858936 320.938324,46.687653 
	C320.938263,61.340313 320.907837,75.993080 320.958862,90.645554 
	C320.971954,94.400368 320.377136,97.818863 316.228699,98.970558 
	C311.897705,100.172935 309.504059,97.593224 307.509186,94.101967 
	C301.485535,83.559746 295.315674,73.101013 289.190338,62.617012 
	C288.389679,61.246635 287.516144,59.918839 285.734070,58.766781 
	C285.734070,69.811768 285.734070,80.856750 285.711060,92.337135 
z"/>
<path fill="#46496A" opacity="1.000000" stroke="none" 
	d="
M352.704346,36.524334 
	C348.002777,36.082355 345.323181,33.903725 345.645111,29.437481 
	C345.974243,24.871237 349.300720,23.399515 353.364777,23.380459 
	C365.006470,23.325872 376.649475,23.280867 388.290192,23.401854 
	C393.215851,23.453047 396.034912,26.077700 396.009613,30.016945 
	C395.984253,33.964649 393.181580,36.372433 388.203552,36.528381 
	C384.748230,36.636623 381.286804,36.549202 377.205658,36.549202 
	C377.205658,38.871731 377.205688,40.652802 377.205688,42.433872 
	C377.205444,58.566353 377.225555,74.698875 377.193787,90.831291 
	C377.182709,96.457848 375.139435,99.124992 370.955627,99.229568 
	C366.571014,99.339172 364.204529,96.466225 364.189423,90.723946 
	C364.147339,74.757889 364.174500,58.791649 364.174286,42.825481 
	C364.174286,41.019062 364.174286,39.212639 364.174286,36.543205 
	C360.272552,36.543205 356.701508,36.543205 352.704346,36.524334 
z"/>
<path fill="#636686" opacity="1.000000" stroke="none" 
	d="
M151.470642,68.559189 
	C156.589340,74.544586 161.786057,80.161713 166.968842,85.791641 
	C171.530884,90.747261 172.035477,94.351669 168.620316,97.394905 
	C165.438431,100.230270 161.815155,99.431511 157.518158,94.850403 
	C150.344986,87.202980 143.174469,79.552376 136.085922,71.826874 
	C134.797073,70.422218 133.905319,68.653221 132.830261,67.052406 
	C132.206863,67.491425 131.583450,67.930443 130.960052,68.369461 
	C130.960052,75.939438 131.183182,83.519859 130.829849,91.073311 
	C130.717682,93.471085 129.636368,96.426712 127.941307,97.952553 
	C126.632805,99.130424 123.153786,99.340797 121.584999,98.401939 
	C119.823639,97.347832 118.219406,94.560043 118.122581,92.454071 
	C117.733070,83.982483 117.949738,75.482903 117.947868,66.993660 
	C117.945305,55.341686 117.920692,43.689621 117.958611,32.037769 
	C117.979637,25.575098 120.115967,23.428825 126.702324,23.356592 
	C134.191986,23.274454 141.683380,23.304346 149.173752,23.341583 
	C163.649246,23.413544 173.643433,31.808455 174.184036,44.301991 
	C174.763840,57.701435 166.323288,66.609108 151.470642,68.559189 
M130.949265,47.451920 
	C130.949265,49.864834 130.949265,52.277748 130.949265,54.936134 
	C138.681793,54.936134 145.651367,55.119385 152.605682,54.872612 
	C157.352661,54.704170 160.775818,51.117935 161.149048,46.680908 
	C161.570221,41.673843 158.961960,37.345158 153.991821,36.959229 
	C146.463821,36.374691 138.856888,36.806522 130.949234,36.806522 
	C130.949234,40.194630 130.949234,43.338589 130.949265,47.451920 
z"/>
<path fill="#616585" opacity="1.000000" stroke="none" 
	d="
M68.618774,119.069405 
	C69.062973,149.769623 69.037041,180.409805 69.007126,211.902832 
	C68.108429,215.236832 67.317085,217.761200 66.301476,220.191864 
	C61.378708,231.973724 56.395744,243.730423 51.193382,255.598877 
	C50.626553,255.820129 50.300449,255.938538 49.974350,256.056946 
	C39.984364,256.037231 29.990625,256.176514 20.005724,255.941071 
	C13.526913,255.788315 7.675256,253.869720 3.960197,247.583984 
	C17.665161,247.189606 31.382608,247.130920 45.567596,247.010452 
	C47.507950,246.948654 48.980766,246.948654 50.981575,246.948654 
	C50.981575,204.446823 50.981575,162.248062 50.945312,119.590469 
	C56.655579,119.090889 62.402103,119.050133 68.618774,119.069405 
z"/>
<path fill="#636686" opacity="1.000000" stroke="none" 
	d="
M211.361862,99.492638 
	C209.072357,99.411873 207.239319,99.375809 205.413147,99.244591 
	C201.206512,98.942307 199.037445,96.554588 199.027267,92.433052 
	C198.976257,71.781349 198.976776,51.129402 199.021347,30.477678 
	C199.031601,25.730368 201.929825,23.459095 206.339798,23.401367 
	C217.663040,23.253139 228.990494,23.258875 240.314148,23.388107 
	C245.164627,23.443462 248.194870,26.232605 247.943100,30.123680 
	C247.648911,34.670013 244.618011,36.456944 240.496948,36.517296 
	C232.171341,36.639229 223.842957,36.564617 215.515823,36.598114 
	C214.544724,36.602020 213.574326,36.776421 212.314011,36.900223 
	C212.314011,42.791954 212.314011,48.542557 212.314011,54.962543 
	C217.122650,54.962543 221.888000,54.919495 226.652252,54.974350 
	C231.664169,55.032059 234.643372,57.339027 234.790924,61.151863 
	C234.944977,65.133095 231.719360,67.893883 226.693558,67.958702 
	C222.045242,68.018654 217.395538,67.971474 212.378815,67.971474 
	C212.378815,73.958496 212.378815,79.690094 212.378815,86.266685 
	C216.862854,86.266685 221.434158,86.258957 226.005417,86.268730 
	C231.167847,86.279755 236.346130,86.065620 241.487518,86.404480 
	C245.431900,86.664444 248.118393,88.997337 247.902710,93.229286 
	C247.703201,97.144249 245.198334,99.204208 241.294479,99.254997 
	C231.470764,99.382820 221.645874,99.420372 211.361862,99.492638 
z"/>
<path fill="#4E79AD" opacity="1.000000" stroke="none" 
	d="
M439.941589,472.029724 
	C439.024506,472.061188 438.028351,471.967529 437.032166,471.967743 
	C316.329712,471.993134 195.627274,472.025421 74.461060,472.109863 
	C73.997284,472.162354 74.107780,472.002808 74.053520,471.709015 
	C73.999260,471.415222 73.972694,471.010803 74.443001,471.002258 
	C135.623077,470.975006 196.332855,470.956329 257.506226,470.975342 
	C318.620483,471.038483 379.271149,471.063934 439.925964,471.248505 
	C439.930115,471.407623 439.886902,471.723022 439.886902,471.723022 
	C439.886902,471.723022 439.862457,471.948486 439.941589,472.029724 
z"/>
<path fill="#48B4FE" opacity="1.000000" stroke="none" 
	d="
M49.979019,256.428162 
	C50.300449,255.938538 50.626553,255.820129 51.329170,255.728226 
	C51.705692,255.754730 51.994267,255.994324 52.002884,256.385559 
	C56.951675,274.378204 65.068382,290.545776 74.494072,306.088989 
	C81.878105,318.265442 90.808884,329.207001 102.343575,337.682770 
	C107.253906,341.290924 112.813545,344.015411 118.093658,347.557007 
	C119.918304,366.259552 129.602814,380.354126 142.237381,393.243866 
	C144.294769,394.568756 146.178513,395.620514 148.464447,396.789886 
	C153.567505,397.220276 158.268356,397.533020 163.387894,397.905548 
	C165.213852,397.948151 166.621155,397.931000 168.485992,397.970337 
	C173.604187,398.196350 178.264847,398.365814 183.347015,398.676758 
	C185.530090,398.778931 187.291641,398.739624 189.511673,398.760620 
	C194.631897,398.823242 199.293640,398.825592 204.374725,398.894470 
	C206.204117,398.934296 207.614166,398.907562 209.485870,398.936859 
	C214.631027,399.012421 219.314529,399.031921 224.247955,399.280792 
	C226.000214,399.376251 227.502533,399.242310 229.470230,399.133179 
	C234.624176,399.171478 239.312775,399.184967 244.254593,399.413300 
	C246.029846,399.528015 247.551880,399.427917 249.506271,399.295624 
	C252.247742,399.243713 254.556839,399.223938 256.923920,399.374420 
	C256.981903,399.544678 257.094666,399.886292 257.065826,400.361267 
	C257.055695,408.260406 257.074432,415.684540 257.039856,423.284027 
	C256.986603,423.459351 256.883514,423.810791 256.422516,423.795685 
	C233.490829,423.782867 211.010956,424.179779 188.552505,423.656860 
	C171.970566,423.270721 160.436279,430.060028 153.496689,444.924194 
	C147.612839,457.527008 137.563034,462.909180 123.906479,462.866394 
	C90.950790,462.763123 57.994404,462.883179 25.038300,462.913147 
	C23.683657,454.936371 22.228973,446.975037 20.997467,438.979279 
	C19.077919,426.516388 17.309820,414.030121 15.222443,401.271667 
	C10.231923,385.362274 5.630050,369.637024 7.086973,353.078156 
	C8.406009,338.086426 12.903263,324.044403 20.470760,310.839417 
	C30.673822,293.035492 40.179012,274.831604 49.979019,256.428162 
M31.839130,340.230133 
	C30.515537,344.076935 28.552990,347.838867 28.028206,351.791718 
	C27.354561,356.865936 27.822105,362.093475 27.823120,367.254974 
	C27.825346,378.590851 29.974489,381.815582 40.494900,385.999969 
	C61.880569,394.505829 84.318230,397.966919 107.831367,399.959381 
	C111.617218,399.739960 109.488319,397.620361 108.855247,396.325287 
	C105.645073,389.758423 102.074104,383.359894 99.052696,376.710144 
	C88.469460,353.417694 69.119308,342.435669 45.062717,338.296814 
	C40.969776,337.592590 36.114094,335.634186 31.839130,340.230133 
M115.984444,447.525757 
	C118.798828,444.051910 122.209785,440.903229 124.314186,437.042389 
	C130.294571,426.070557 129.703171,427.761963 118.574936,426.047943 
	C102.872475,423.629364 87.125458,421.497314 71.389328,419.301239 
	C63.027420,418.134338 54.657108,417.016602 46.273476,416.020782 
	C41.660046,415.472839 38.034103,417.670349 37.146790,422.017303 
	C35.936581,427.945984 35.414143,434.094788 35.360126,440.156006 
	C35.312225,445.530457 39.129742,448.609222 44.007492,449.748779 
	C48.824299,450.874115 53.792080,451.439423 58.723904,451.967896 
	C68.435913,453.008728 78.162735,453.925690 87.894897,454.760071 
	C97.818481,455.610901 107.641838,455.835236 115.984444,447.525757 
z"/>
<path fill="#2292FF" opacity="1.000000" stroke="none" 
	d="
M257.093140,423.108704 
	C257.074432,415.684540 257.055695,408.260406 257.490173,400.335052 
	C259.933105,399.770935 261.922882,399.708008 264.345917,399.756409 
	C266.552277,399.775879 268.325378,399.683990 270.553589,399.651062 
	C275.638245,399.643250 280.267700,399.576447 285.265656,399.640015 
	C287.096191,399.586731 288.558228,399.403107 290.484924,399.231750 
	C295.626495,399.129852 300.303436,399.015686 305.401123,398.963409 
	C307.236267,398.957184 308.650696,398.889099 310.523254,398.883301 
	C315.644775,398.897797 320.308136,398.850067 325.314941,398.866882 
	C326.121857,398.898102 326.585358,398.864777 327.363892,398.882446 
	C328.101379,398.897003 328.523804,398.860596 329.297821,398.871338 
	C330.114655,398.850739 330.579895,398.782990 331.484863,398.765869 
	C336.601105,398.532684 341.277710,398.248901 346.376343,398.023682 
	C348.207825,398.001801 349.617249,397.921356 351.483765,397.899902 
	C356.616058,397.564178 361.291199,397.169464 366.293396,396.721130 
	C368.414886,395.466675 370.209320,394.265869 372.306030,392.915894 
	C381.115387,384.173615 388.298462,374.589905 392.332062,363.138641 
	C394.211273,357.803528 394.587616,351.939026 396.036499,346.226593 
	C407.053528,342.863373 415.569702,336.113037 422.894836,328.276459 
	C435.876709,314.388153 445.767456,298.309326 453.108368,280.736877 
	C456.552856,272.491486 459.796722,264.162292 463.131531,255.871078 
	C463.131531,255.871078 463.579224,255.973312 463.804016,256.020905 
	C470.366547,268.220673 476.363190,280.566711 483.130981,292.474396 
	C491.041870,306.393341 499.756104,319.889099 503.974518,335.547516 
	C508.769165,353.344818 507.663208,371.063690 502.708282,388.655975 
	C501.620728,392.517273 500.446198,396.354034 499.212158,400.569214 
	C497.738464,408.903259 496.202972,416.846436 495.027863,424.842590 
	C493.248352,436.951752 491.719574,449.097717 489.584747,461.715515 
	C456.289734,462.209076 423.488800,461.867889 390.701233,462.380920 
	C376.261536,462.606903 366.595184,456.804016 360.475372,444.044922 
	C353.462677,429.424225 341.586609,422.969208 325.512299,423.113617 
	C302.707794,423.318481 279.899689,423.129425 257.093140,423.108704 
M481.000580,340.018799 
	C481.000580,340.018799 481.072479,339.980133 480.926392,339.275635 
	C479.412170,338.690277 477.856354,337.507599 476.390015,337.609680 
	C456.303833,339.008392 437.715759,345.141937 425.088226,361.282196 
	C416.239410,372.592590 410.325439,386.199097 402.518402,399.794281 
	C405.083954,399.794281 405.999878,399.794281 407.769043,399.864990 
	C415.839844,398.898132 424.083038,398.662201 431.944427,396.807617 
	C446.914948,393.275940 461.736694,389.050903 476.475952,384.632660 
	C482.283813,382.891663 485.950928,378.418793 486.098877,372.005981 
	C486.263641,364.862915 486.505066,357.677277 485.897034,350.580078 
	C485.607513,347.200714 483.426727,343.983398 481.834869,340.280609 
	C481.615753,339.977142 481.323517,339.866638 481.000580,340.018799 
M456.406219,451.998596 
	C477.520538,449.639160 479.530792,447.598328 478.950287,430.085968 
	C478.890717,428.288330 478.406464,426.483246 477.954132,424.724030 
	C476.157379,417.736053 472.855408,415.186310 465.655823,416.075989 
	C455.321136,417.353119 445.045288,419.099823 434.733856,420.572906 
	C421.802399,422.420410 408.855530,424.160126 395.924286,426.009155 
	C383.690094,427.758484 383.753448,426.694672 389.697754,437.022095 
	C396.227997,448.367462 405.343140,456.416290 419.867767,455.027252 
	C431.728027,453.893005 443.611389,452.999969 456.406219,451.998596 
z"/>
<path fill="#616484" opacity="1.000000" stroke="none" 
	d="
M25.053432,463.267883 
	C57.994404,462.883179 90.950790,462.763123 123.906479,462.866394 
	C137.563034,462.909180 147.612839,457.527008 153.496689,444.924194 
	C160.436279,430.060028 171.970566,423.270721 188.552505,423.656860 
	C211.010956,424.179779 233.490829,423.782867 256.458862,424.279297 
	C256.985046,440.164520 257.013824,455.551086 257.042603,470.937622 
	C196.332855,470.956329 135.623077,470.975006 73.977455,470.998352 
	C60.692493,471.006348 48.343388,471.009735 35.994278,471.013092 
	C30.544712,471.221954 27.525785,467.837494 25.053432,463.267883 
z"/>
<path fill="#4B648C" opacity="1.000000" stroke="none" 
	d="
M36.301830,471.294312 
	C48.343388,471.009735 60.692493,471.006348 73.507149,471.006897 
	C73.972694,471.010803 73.999260,471.415222 74.036774,471.613403 
	C61.585987,471.732941 49.097683,471.654236 36.301830,471.294312 
z"/>
<path fill="#424668" opacity="1.000000" stroke="none" 
	d="
M257.506195,470.975342 
	C257.013824,455.551086 256.985046,440.164520 256.919861,424.294373 
	C256.883514,423.810791 256.986603,423.459351 257.039856,423.284027 
	C279.899689,423.129425 302.707794,423.318481 325.512299,423.113617 
	C341.586609,422.969208 353.462677,429.424225 360.475372,444.044922 
	C366.595184,456.804016 376.261536,462.606903 390.701233,462.380920 
	C423.488800,461.867889 456.289734,462.209076 489.549561,462.123352 
	C488.208527,467.460938 484.594391,470.611420 477.921753,471.007324 
	C464.681793,471.035095 452.301819,471.062225 439.921844,471.089355 
	C379.271149,471.063934 318.620483,471.038483 257.506195,470.975342 
z"/>
<path fill="#405E8D" opacity="1.000000" stroke="none" 
	d="
M439.925964,471.248474 
	C452.301819,471.062225 464.681793,471.035095 477.530273,471.005127 
	C476.600372,471.334625 475.203278,471.947998 473.803253,471.954651 
	C462.812653,472.006866 451.821442,471.942993 440.358673,471.818970 
	C439.886902,471.723022 439.930115,471.407623 439.925964,471.248474 
z"/>
<path fill="#48B4FE" opacity="1.000000" stroke="none" 
	d="
M51.569901,255.625397 
	C56.395744,243.730423 61.378708,231.973724 66.301476,220.191864 
	C67.317085,217.761200 68.108429,215.236832 69.030174,212.369995 
	C71.451843,206.751709 73.846481,201.519089 76.934937,196.124405 
	C81.273132,195.474976 79.026260,193.685959 78.445648,192.265106 
	C79.051117,190.596603 79.656586,188.928116 80.930428,187.112259 
	C82.330627,186.482437 83.062454,185.999954 83.794281,185.517487 
	C83.251015,185.012085 82.707741,184.506683 82.164459,184.001282 
	C83.857040,180.746765 85.549622,177.492249 87.924309,174.101181 
	C90.834702,173.726562 91.749695,172.930527 89.885681,170.953735 
	C94.330544,165.392944 98.227852,159.256775 103.337372,154.394424 
	C113.148727,145.057663 124.885849,138.553604 137.696136,134.076492 
	C138.146133,133.919220 138.682739,134.009689 139.631348,134.271317 
	C140.701523,134.945496 141.319336,135.333069 141.937149,135.720642 
	C142.291626,134.868591 142.646103,134.016525 143.000580,133.164490 
	C144.377396,132.774292 145.754211,132.384094 147.726791,131.902924 
	C148.609863,131.664841 148.830414,131.449387 148.984177,131.165588 
	C150.408295,130.864761 151.832413,130.563919 153.636658,130.539978 
	C154.376846,131.376236 154.736908,131.935623 155.096985,132.495010 
	C155.398163,131.718185 155.699341,130.941360 156.000519,130.164520 
	C189.358063,129.783051 222.715607,129.401581 256.535461,129.301682 
	C256.997772,129.583267 256.995728,129.986740 256.996887,130.451416 
	C256.997192,135.243469 256.996277,139.570847 256.535339,143.989273 
	C226.944153,144.102570 197.812698,144.054459 168.682037,144.183441 
	C157.795547,144.231659 147.181076,146.066788 137.114014,150.432312 
	C117.116539,159.104095 102.817055,173.427628 94.118576,193.449585 
	C84.911392,214.642487 75.520142,235.755402 65.771149,256.928040 
	C60.886761,256.633331 56.440514,256.313843 51.994267,255.994324 
	C51.994267,255.994324 51.705692,255.754730 51.569901,255.625397 
z"/>
<path fill="#2292FE" opacity="1.000000" stroke="none" 
	d="
M256.995361,143.898239 
	C256.996277,139.570847 256.997192,135.243469 257.466003,130.443253 
	C287.980133,129.942261 318.026367,129.914093 348.072601,129.885925 
	C368.834106,129.279892 387.167114,136.492050 403.595215,148.384521 
	C418.249969,158.993256 428.015137,173.701172 435.010956,190.287796 
	C438.032013,197.450500 441.176727,204.561035 444.597046,211.846405 
	C447.731262,218.855057 450.529175,225.714401 453.337402,232.569534 
	C456.277802,239.747437 459.228119,246.921295 461.817505,254.516632 
	C456.994110,255.306396 452.527313,255.676437 447.871887,255.739044 
	C437.786194,233.302216 428.547272,210.848190 417.830933,189.122910 
	C403.372833,159.811859 378.831573,144.976044 346.314606,144.193085 
	C321.710693,143.600677 297.081146,144.057922 272.463074,144.087357 
	C267.315857,144.093521 262.168823,144.271957 257.028442,144.252075 
	C257.035187,144.133133 256.995361,143.898239 256.995361,143.898239 
z"/>
<path fill="#47B4FE" opacity="1.000000" stroke="none" 
	d="
M347.846008,129.516022 
	C318.026367,129.914093 287.980133,129.942261 257.464813,129.978577 
	C256.995728,129.986740 256.997772,129.583267 256.997925,129.381531 
	C287.205200,129.168564 317.412323,129.157333 347.846008,129.516022 
z"/>
<path fill="#47B4FE" opacity="1.000000" stroke="none" 
	d="
M142.660248,133.091873 
	C142.646103,134.016525 142.291626,134.868591 141.937149,135.720642 
	C141.319336,135.333069 140.701523,134.945496 140.022156,134.218140 
	C140.747055,133.591980 141.533493,133.305618 142.660248,133.091873 
z"/>
<path fill="#47B4FE" opacity="1.000000" stroke="none" 
	d="
M89.585297,171.075165 
	C91.749695,172.930527 90.834702,173.726562 88.244263,173.960770 
	C88.349701,173.036804 88.817314,172.116699 89.585297,171.075165 
z"/>
<path fill="#47B4FE" opacity="1.000000" stroke="none" 
	d="
M82.027832,184.305634 
	C82.707741,184.506683 83.251015,185.012085 83.794281,185.517487 
	C83.062454,185.999954 82.330627,186.482437 81.240387,186.960861 
	C81.218384,186.174545 81.554794,185.392258 82.027832,184.305634 
z"/>
<path fill="#47B4FE" opacity="1.000000" stroke="none" 
	d="
M78.246643,192.544342 
	C79.026260,193.685959 81.273132,195.474976 77.255371,195.959595 
	C77.270546,194.912415 77.659088,193.867996 78.246643,192.544342 
z"/>
<path fill="#47B4FE" opacity="1.000000" stroke="none" 
	d="
M155.669525,130.092896 
	C155.699341,130.941360 155.398163,131.718185 155.096985,132.495010 
	C154.736908,131.935623 154.376846,131.376236 154.008362,130.492340 
	C154.446136,130.118973 154.892334,130.070114 155.669525,130.092896 
z"/>
<path fill="#47B4FE" opacity="1.000000" stroke="none" 
	d="
M148.719482,131.132080 
	C148.830414,131.449387 148.609863,131.664841 148.100647,131.886505 
	C148.070755,131.673584 148.262772,131.386078 148.719482,131.132080 
z"/>
<path fill="#47B5FF" opacity="1.000000" stroke="none" 
	d="
M448.060547,256.046448 
	C452.527313,255.676437 456.994110,255.306396 461.915222,254.879974 
	C462.654144,254.953186 462.857178,255.162079 463.055084,255.660675 
	C459.796722,264.162292 456.552856,272.491486 453.108368,280.736877 
	C445.767456,298.309326 435.876709,314.388153 422.894836,328.276459 
	C415.569702,336.113037 407.053528,342.863373 395.686096,346.278381 
	C386.970520,347.290253 378.996704,348.162415 370.606262,348.961700 
	C368.785797,348.937164 367.381958,348.985504 365.516113,348.978699 
	C360.373779,348.958099 355.693420,348.992676 350.595734,348.956787 
	C348.771179,348.942963 347.363983,348.999573 345.496674,348.994690 
	C340.353271,348.956512 335.669952,348.979797 330.563354,348.937988 
	C328.429169,348.917542 326.718262,348.962128 324.542908,348.959595 
	C319.398773,348.960052 314.719086,349.007629 309.622620,348.976013 
	C307.798981,348.940826 306.392090,348.984833 304.522705,348.974670 
	C299.379761,348.954681 294.699310,348.988892 289.601990,348.951904 
	C287.780609,348.932007 286.376068,348.983276 284.509949,348.978943 
	C279.365601,348.953796 274.682831,348.984283 269.583679,348.947632 
	C267.765869,348.934448 266.364441,348.988373 264.522949,348.980438 
	C261.702087,348.859009 259.321320,348.799469 256.958313,348.287903 
	C256.991882,320.292999 257.007721,292.750153 257.030640,265.109192 
	C257.037750,265.011139 256.983765,264.821991 257.448730,264.890259 
	C293.026337,264.025421 328.149231,263.367554 363.248138,262.064575 
	C387.502655,261.164185 411.727631,259.429077 435.956909,257.924042 
	C440.014679,257.672028 444.027161,256.690735 448.060547,256.046448 
z"/>
<path fill="#E3E7FC" opacity="1.000000" stroke="none" 
	d="
M130.949249,46.967232 
	C130.949234,43.338589 130.949234,40.194630 130.949234,36.806522 
	C138.856888,36.806522 146.463821,36.374691 153.991821,36.959229 
	C158.961960,37.345158 161.570221,41.673843 161.149048,46.680908 
	C160.775818,51.117935 157.352661,54.704170 152.605682,54.872612 
	C145.651367,55.119385 138.681793,54.936134 130.949265,54.936134 
	C130.949265,52.277748 130.949265,49.864834 130.949249,46.967232 
z"/>
<path fill="#5CC5FF" opacity="1.000000" stroke="none" 
	d="
M257.023560,265.207275 
	C257.007721,292.750153 256.991882,320.292999 256.982849,348.363464 
	C256.989655,348.891052 257.006226,349.048920 256.564392,349.004364 
	C253.751709,348.993622 251.380890,349.027466 248.595108,349.004578 
	C246.787933,348.982483 245.395721,349.017151 243.538818,349.009827 
	C238.387527,349.002167 233.700958,349.036469 228.597931,349.010864 
	C226.782593,348.991302 225.383728,349.031555 223.521744,349.024902 
	C218.376984,349.009613 213.695328,349.041260 208.596680,349.012421 
	C206.778503,348.998016 205.377319,349.044128 203.514069,349.038086 
	C198.371201,349.011597 193.690414,349.037292 188.582535,349.005798 
	C186.434616,348.985168 184.713776,349.021759 182.529068,349.014893 
	C177.385529,349.012787 172.705841,349.054077 167.609375,349.028076 
	C165.790802,348.997650 164.389038,349.034576 162.524078,349.023804 
	C157.378845,349.008057 152.696793,349.040009 147.598358,349.011841 
	C145.783279,348.991058 144.384583,349.030334 142.523407,349.022034 
	C134.066635,348.363495 126.072380,347.752472 118.078125,347.141479 
	C112.813545,344.015411 107.253906,341.290924 102.343575,337.682770 
	C90.808884,329.207001 81.878105,318.265442 74.494072,306.088989 
	C65.068382,290.545776 56.951675,274.378204 52.002884,256.385559 
	C56.440514,256.313843 60.886761,256.633331 66.201874,256.954346 
	C89.784706,258.585785 112.485443,260.441650 135.216843,261.774200 
	C153.488571,262.845306 171.792572,263.464661 190.091080,263.954987 
	C212.397079,264.552582 234.712341,264.805359 257.023560,265.207275 
z"/>
<path fill="#E5EAFE" opacity="1.000000" stroke="none" 
	d="
M107.091156,399.792938 
	C84.318230,397.966919 61.880569,394.505829 40.494900,385.999969 
	C29.974489,381.815582 27.825346,378.590851 27.823120,367.254974 
	C27.822105,362.093475 27.354561,356.865936 28.028206,351.791718 
	C28.552990,347.838867 30.515537,344.076935 32.637047,340.118073 
	C55.258537,340.450897 74.632668,347.494568 88.009682,365.023956 
	C95.939865,375.415741 100.832634,388.125458 107.091156,399.792938 
M58.187115,379.925598 
	C65.139061,376.041473 68.352661,369.484833 66.691689,362.573853 
	C64.956856,355.355499 58.974380,350.303101 51.807095,350.003357 
	C44.548325,349.699738 38.688522,354.029877 35.996052,361.347839 
	C33.667591,367.676483 35.751144,373.132874 40.061138,377.285370 
	C44.868248,381.916901 50.946003,383.600983 58.187115,379.925598 
M77.617310,390.275299 
	C85.175583,392.122223 90.058487,389.905823 90.951286,384.222839 
	C91.749405,379.142578 89.388481,375.326813 84.074265,373.611755 
	C79.778587,372.225372 76.609070,374.515533 74.287315,377.683777 
	C71.553787,381.413910 72.782997,386.262054 77.617310,390.275299 
z"/>
<path fill="#2392FD" opacity="1.000000" stroke="none" 
	d="
M115.730072,447.776733 
	C107.641838,455.835236 97.818481,455.610901 87.894897,454.760071 
	C78.162735,453.925690 68.435913,453.008728 58.723904,451.967896 
	C53.792080,451.439423 48.824299,450.874115 44.007492,449.748779 
	C39.129742,448.609222 35.312225,445.530457 35.360126,440.156006 
	C35.414143,434.094788 35.936581,427.945984 37.146790,422.017303 
	C38.034103,417.670349 41.660046,415.472839 46.273476,416.020782 
	C54.657108,417.016602 63.027420,418.134338 71.389328,419.301239 
	C87.125458,421.497314 102.872475,423.629364 118.574936,426.047943 
	C129.703171,427.761963 130.294571,426.070557 124.314186,437.042389 
	C122.209785,440.903229 118.798828,444.051910 115.730072,447.776733 
M100.887772,436.315094 
	C102.377625,433.605804 103.867470,430.896545 105.872406,427.250580 
	C99.354729,426.259613 93.853287,425.403107 88.345474,424.589783 
	C75.695221,422.721771 63.055576,420.773224 50.383968,419.062195 
	C44.075886,418.210449 41.062286,420.285858 39.673439,426.667053 
	C38.907547,430.186035 38.992359,433.926788 38.990906,437.567657 
	C38.988178,444.405609 40.332077,446.598328 47.108372,448.112915 
	C53.557728,449.554413 60.219101,450.110107 66.811378,450.836304 
	C80.543411,452.348969 92.820717,450.162903 100.887772,436.315094 
z"/>
<path fill="#616484" opacity="1.000000" stroke="none" 
	d="
M209.013672,349.072937 
	C213.695328,349.041260 218.376984,349.009613 223.526703,349.487183 
	C223.995850,366.348083 223.996948,382.699768 223.998047,399.051422 
	C219.314529,399.031921 214.631027,399.012421 209.477661,398.478577 
	C209.009781,381.667114 209.011734,365.370026 209.013672,349.072937 
z"/>
<path fill="#616585" opacity="1.000000" stroke="none" 
	d="
M189.009613,349.062988 
	C193.690414,349.037292 198.371201,349.011597 203.518341,349.498718 
	C203.974930,366.283630 203.965164,382.555786 203.955399,398.827942 
	C199.293640,398.825592 194.631897,398.823242 189.494949,398.318359 
	C189.016388,381.564880 189.013000,365.313904 189.009613,349.062988 
z"/>
<path fill="#616585" opacity="1.000000" stroke="none" 
	d="
M168.026169,349.095367 
	C172.705841,349.054077 177.385529,349.012787 182.534454,349.478455 
	C182.977631,366.168701 182.951569,382.351990 182.925507,398.535278 
	C178.264847,398.365814 173.604187,398.196350 168.480896,397.509552 
	C168.020905,381.026611 168.023544,365.060974 168.026169,349.095367 
z"/>
<path fill="#616485" opacity="1.000000" stroke="none" 
	d="
M148.014740,349.071960 
	C152.696793,349.040009 157.378845,349.008057 162.528625,349.486145 
	C162.987320,365.946045 162.978271,381.895935 162.969223,397.845795 
	C158.268356,397.533020 153.567505,397.220276 148.446838,396.350647 
	C148.022934,380.219849 148.018845,364.645935 148.014740,349.071960 
z"/>
<path fill="#616586" opacity="1.000000" stroke="none" 
	d="
M118.093658,347.557007 
	C126.072380,347.752472 134.066635,348.363495 142.527954,349.484558 
	C142.996658,362.586517 143.034134,375.178680 142.958359,387.770142 
	C142.947906,389.505402 142.375809,391.237274 142.063721,392.970734 
	C129.602814,380.354126 119.918304,366.259552 118.093658,347.557007 
z"/>
<path fill="#636686" opacity="1.000000" stroke="none" 
	d="
M229.014374,349.070740 
	C233.700958,349.036469 238.387527,349.002167 243.542679,349.465698 
	C244.087357,352.105164 244.163467,354.246826 244.033936,356.639709 
	C232.662827,367.462463 232.719696,379.878021 243.989883,391.493042 
	C243.997131,394.359772 243.999237,396.779114 244.001358,399.198486 
	C239.312775,399.184967 234.624176,399.171478 229.469452,398.654694 
	C229.006989,381.791199 229.010681,365.430969 229.014374,349.070740 
z"/>
<path fill="#F9F069" opacity="1.000000" stroke="none" 
	d="
M107.461266,399.876160 
	C100.832634,388.125458 95.939865,375.415741 88.009682,365.023956 
	C74.632668,347.494568 55.258537,340.450897 32.935928,339.993896 
	C36.114094,335.634186 40.969776,337.592590 45.062717,338.296814 
	C69.119308,342.435669 88.469460,353.417694 99.052696,376.710144 
	C102.074104,383.359894 105.645073,389.758423 108.855247,396.325287 
	C109.488319,397.620361 111.617218,399.739960 107.461266,399.876160 
z"/>
<path fill="#6F759A" opacity="1.000000" stroke="none" 
	d="
M183.347015,398.676758 
	C182.951569,382.351990 182.977631,366.168701 182.998322,349.521851 
	C184.713776,349.021759 186.434616,348.985168 188.582535,349.005768 
	C189.013000,365.313904 189.016388,381.564880 189.036484,398.258057 
	C187.291641,398.739624 185.530090,398.778931 183.347015,398.676758 
z"/>
<path fill="#72769D" opacity="1.000000" stroke="none" 
	d="
M228.597931,349.010864 
	C229.010681,365.430969 229.006989,381.791199 229.004089,398.629883 
	C227.502533,399.242310 226.000214,399.376251 224.247955,399.280792 
	C223.996948,382.699768 223.995850,366.348083 223.989807,349.534119 
	C225.383728,349.031555 226.782593,348.991302 228.597931,349.010864 
z"/>
<path fill="#72769C" opacity="1.000000" stroke="none" 
	d="
M204.374725,398.894470 
	C203.965164,382.555786 203.974930,366.283630 203.980423,349.550842 
	C205.377319,349.044128 206.778503,348.998016 208.596680,349.012421 
	C209.011734,365.370026 209.009781,381.667114 209.016022,398.422485 
	C207.614166,398.907562 206.204117,398.934296 204.374725,398.894470 
z"/>
<path fill="#72769C" opacity="1.000000" stroke="none" 
	d="
M163.387894,397.905548 
	C162.978271,381.895935 162.987320,365.946045 162.991821,349.533844 
	C164.389038,349.034576 165.790802,348.997650 167.609375,349.028076 
	C168.023544,365.060974 168.020905,381.026611 168.023361,397.453003 
	C166.621155,397.931000 165.213852,397.948151 163.387894,397.905548 
z"/>
<path fill="#72769C" opacity="1.000000" stroke="none" 
	d="
M142.237396,393.243866 
	C142.375809,391.237274 142.947906,389.505402 142.958359,387.770142 
	C143.034134,375.178680 142.996658,362.586517 142.990463,349.532104 
	C144.384583,349.030334 145.783279,348.991058 147.598358,349.011871 
	C148.018845,364.645935 148.022934,380.219849 148.044647,396.233032 
	C146.178513,395.620514 144.294769,394.568756 142.237396,393.243866 
z"/>
<path fill="#727AA1" opacity="1.000000" stroke="none" 
	d="
M244.254593,399.413330 
	C243.999237,396.779114 243.997131,394.359772 244.302917,391.595581 
	C246.073318,392.171783 247.535797,393.092834 249.000305,394.451813 
	C249.026184,396.369110 249.050049,397.848450 249.073898,399.327789 
	C247.551880,399.427917 246.029846,399.528015 244.254593,399.413330 
z"/>
<path fill="#424567" opacity="1.000000" stroke="none" 
	d="
M263.912628,399.645081 
	C261.922882,399.708008 259.933105,399.770935 257.519012,399.860077 
	C257.094666,399.886292 256.981903,399.544678 256.961121,398.992676 
	C256.993530,397.425354 257.046753,396.410034 257.107483,395.302002 
	C257.115021,395.209290 257.026825,395.045532 257.437286,395.117859 
	C259.505402,395.082428 261.163025,394.974609 263.108582,395.100281 
	C263.568512,396.770874 263.740570,398.207977 263.912628,399.645081 
z"/>
<path fill="#646889" opacity="1.000000" stroke="none" 
	d="
M257.099976,395.394745 
	C257.046753,396.410034 256.993530,397.425354 256.903137,398.822388 
	C254.556839,399.223938 252.247742,399.243713 249.506271,399.295624 
	C249.050049,397.848450 249.026184,396.369110 249.380096,394.596375 
	C252.205231,394.666901 254.652603,395.030823 257.099976,395.394745 
z"/>
<path fill="#C9D4FE" opacity="1.000000" stroke="none" 
	d="
M482.102661,340.692657 
	C483.426727,343.983398 485.607513,347.200714 485.897034,350.580078 
	C486.505066,357.677277 486.263641,364.862915 486.098877,372.005981 
	C485.950928,378.418793 482.283813,382.891663 476.475952,384.632660 
	C461.736694,389.050903 446.914948,393.275940 431.944427,396.807617 
	C424.083038,398.662201 415.839844,398.898132 407.412842,399.487152 
	C410.590607,392.136932 414.226227,385.213928 417.640350,378.183380 
	C430.512695,351.676025 452.949890,341.126404 481.072479,339.980133 
	C481.072479,339.980133 481.000580,340.018799 481.161438,340.123413 
	C481.549072,340.438873 481.809204,340.593750 482.102661,340.692657 
M456.998688,351.123749 
	C449.102570,355.089905 445.384247,362.378754 447.452820,369.836060 
	C449.454834,377.053467 456.995575,382.855774 463.774719,381.903351 
	C470.204407,381.000000 475.248444,378.040466 477.784851,371.463745 
	C480.191284,365.223969 478.615356,359.727814 474.537872,355.293854 
	C470.156647,350.529602 464.375336,348.465454 456.998688,351.123749 
M437.279297,375.148285 
	C436.836212,374.919495 436.362976,374.734741 435.954681,374.455109 
	C431.971222,371.726685 428.522308,373.565094 425.569183,376.113617 
	C422.462494,378.794617 422.235870,382.524445 423.687439,386.191498 
	C425.168030,389.931885 428.402100,391.734497 432.082855,390.848236 
	C434.988312,390.148651 438.492432,388.594727 440.019806,386.287598 
	C442.371246,382.735748 441.373047,378.615936 437.279297,375.148285 
z"/>
<path fill="#0284F0" opacity="1.000000" stroke="none" 
	d="
M455.945374,451.999268 
	C443.611389,452.999969 431.728027,453.893005 419.867767,455.027252 
	C405.343140,456.416290 396.227997,448.367462 389.697754,437.022095 
	C383.753448,426.694672 383.690094,427.758484 395.924286,426.009155 
	C408.855530,424.160126 421.802399,422.420410 434.733856,420.572906 
	C445.045288,419.099823 455.321136,417.353119 465.655823,416.075989 
	C472.855408,415.186310 476.157379,417.736053 477.954132,424.724030 
	C478.406464,426.483246 478.890717,428.288330 478.950287,430.085968 
	C479.530792,447.598328 477.520538,449.639160 455.945374,451.999268 
M413.899963,426.152710 
	C412.328705,426.555023 410.757477,426.957336 408.210297,427.609528 
	C410.598114,431.640808 412.476471,435.272156 414.779938,438.610107 
	C420.542999,446.961487 428.179626,451.802124 438.783356,450.971649 
	C445.407074,450.452850 452.078400,450.474213 458.684967,449.816986 
	C473.438660,448.349304 475.814667,445.405609 475.028992,430.481293 
	C474.532654,421.054291 470.365784,417.953125 461.078400,419.395203 
	C445.659821,421.789246 430.191406,423.862244 413.899963,426.152710 
z"/>
<path fill="#424566" opacity="1.000000" stroke="none" 
	d="
M290.018860,349.023132 
	C294.699310,348.988892 299.379761,348.954681 304.528015,349.440887 
	C304.990662,366.274719 304.985504,382.588104 304.980347,398.901550 
	C300.303436,399.015686 295.626495,399.129852 290.479309,398.743896 
	C290.012329,381.836884 290.015594,365.430023 290.018860,349.023132 
z"/>
<path fill="#434667" opacity="1.000000" stroke="none" 
	d="
M310.039429,349.055176 
	C314.719086,349.007629 319.398773,348.960052 324.548889,349.427673 
	C325.003418,366.229370 324.987457,382.515839 324.971527,398.802338 
	C320.308136,398.850067 315.644775,398.897797 310.510040,398.428650 
	C310.038940,381.626190 310.039185,365.340698 310.039429,349.055176 
z"/>
<path fill="#424668" opacity="1.000000" stroke="none" 
	d="
M371.022888,349.034607 
	C378.996704,348.162415 386.970520,347.290253 395.294739,346.366272 
	C394.587616,351.939026 394.211273,357.803528 392.332062,363.138641 
	C388.298462,374.589905 381.115387,384.173615 372.022217,392.603973 
	C371.298431,377.972321 371.160675,363.503448 371.022888,349.034607 
z"/>
<path fill="#434667" opacity="1.000000" stroke="none" 
	d="
M330.986633,349.003052 
	C335.669952,348.979797 340.353271,348.956512 345.500671,349.458649 
	C345.961273,365.977753 345.957764,381.971436 345.954285,397.965118 
	C341.277710,398.248901 336.601105,398.532684 331.464966,398.320374 
	C330.999146,381.550537 330.992889,365.276794 330.986633,349.003052 
z"/>
<path fill="#424567" opacity="1.000000" stroke="none" 
	d="
M351.013062,349.027252 
	C355.693420,348.992676 360.373779,348.958099 365.521423,349.444519 
	C365.981262,365.568573 365.973816,381.171692 365.966370,396.774780 
	C361.291199,397.169464 356.616058,397.564178 351.474823,397.443665 
	C351.010193,380.961395 351.011627,364.994324 351.013062,349.027252 
z"/>
<path fill="#434767" opacity="1.000000" stroke="none" 
	d="
M270.000092,349.014771 
	C274.682831,348.984283 279.365601,348.953796 284.515259,349.444702 
	C284.953857,366.480591 284.925537,382.995117 284.897186,399.509674 
	C280.267700,399.576447 275.638245,399.643250 270.522980,399.243103 
	C270.040070,396.246246 270.042908,393.716278 270.292175,390.949646 
	C281.643494,380.113251 281.409302,367.910736 269.906372,355.758362 
	C269.957550,353.210480 269.978821,351.112610 270.000092,349.014771 
z"/>
<path fill="#F7C74A" opacity="1.000000" stroke="none" 
	d="
M480.999451,339.627869 
	C452.949890,341.126404 430.512695,351.676025 417.640350,378.183380 
	C414.226227,385.213928 410.590607,392.136932 406.986237,399.451782 
	C405.999878,399.794281 405.083954,399.794281 402.518402,399.794281 
	C410.325439,386.199097 416.239410,372.592590 425.088226,361.282196 
	C437.715759,345.141937 456.303833,339.008392 476.390015,337.609680 
	C477.856354,337.507599 479.412170,338.690277 480.999451,339.627869 
z"/>
<path fill="#616484" opacity="1.000000" stroke="none" 
	d="
M330.563354,348.937988 
	C330.992889,365.276794 330.999146,381.550537 331.025269,398.269775 
	C330.579895,398.782990 330.114655,398.850739 329.146545,398.689209 
	C328.112061,398.583771 327.580475,398.707611 327.048859,398.831421 
	C326.585358,398.864777 326.121857,398.898102 325.314941,398.866882 
	C324.987457,382.515839 325.003418,366.229370 325.013367,349.474792 
	C326.718262,348.962128 328.429169,348.917542 330.563354,348.937988 
z"/>
<path fill="#5E6587" opacity="1.000000" stroke="none" 
	d="
M285.265656,399.640015 
	C284.925537,382.995117 284.953857,366.480591 284.976868,349.500305 
	C286.376068,348.983276 287.780609,348.932007 289.601990,348.951904 
	C290.015594,365.430023 290.012329,381.836884 290.014679,398.731628 
	C288.558228,399.403107 287.096191,399.586731 285.265656,399.640015 
z"/>
<path fill="#616484" opacity="1.000000" stroke="none" 
	d="
M309.622620,348.976013 
	C310.039185,365.340698 310.038940,381.626190 310.051910,398.366364 
	C308.650696,398.889099 307.236267,398.957184 305.401093,398.963379 
	C304.985504,382.588104 304.990662,366.274719 304.990509,349.495056 
	C306.392090,348.984833 307.798981,348.940826 309.622620,348.976013 
z"/>
<path fill="#616484" opacity="1.000000" stroke="none" 
	d="
M350.595734,348.956787 
	C351.011627,364.994324 351.010193,380.961395 351.017700,397.384705 
	C349.617249,397.921356 348.207825,398.001801 346.376343,398.023682 
	C345.957764,381.971436 345.961273,365.977753 345.960754,349.520142 
	C347.363983,348.999573 348.771179,348.942963 350.595734,348.956787 
z"/>
<path fill="#616484" opacity="1.000000" stroke="none" 
	d="
M366.293396,396.721130 
	C365.973816,381.171692 365.981262,365.568573 365.983398,349.499664 
	C367.381958,348.985504 368.785797,348.937164 370.606262,348.961731 
	C371.160675,363.503448 371.298431,377.972321 371.719971,392.753113 
	C370.209320,394.265869 368.414886,395.466675 366.293396,396.721130 
z"/>
<path fill="#596388" opacity="1.000000" stroke="none" 
	d="
M270.045776,391.186340 
	C270.042908,393.716278 270.040070,396.246246 270.067810,399.184143 
	C268.325378,399.683990 266.552277,399.775879 264.345917,399.756439 
	C263.740570,398.207977 263.568512,396.770874 263.351318,394.851746 
	C265.552673,393.308594 267.799225,392.247467 270.045776,391.186340 
z"/>
<path fill="#545B7E" opacity="1.000000" stroke="none" 
	d="
M327.363892,398.882446 
	C327.580475,398.707611 328.112061,398.583771 328.794983,398.642059 
	C328.523804,398.860596 328.101379,398.897003 327.363892,398.882446 
z"/>
<path fill="#F7C74A" opacity="1.000000" stroke="none" 
	d="
M481.968750,340.486633 
	C481.809204,340.593750 481.549072,340.438873 481.140228,340.088531 
	C481.323517,339.866638 481.615753,339.977142 481.968750,340.486633 
z"/>
<path fill="#616484" opacity="1.000000" stroke="none" 
	d="
M257.030670,265.109192 
	C234.712341,264.805359 212.397079,264.552582 190.091080,263.954987 
	C171.792572,263.464661 153.488571,262.845306 135.216843,261.774200 
	C112.485443,260.441650 89.784706,258.585785 66.640007,256.929565 
	C75.520142,235.755402 84.911392,214.642487 94.118576,193.449585 
	C102.817055,173.427628 117.116539,159.104095 137.114014,150.432312 
	C147.181076,146.066788 157.795547,144.231659 168.682037,144.183441 
	C197.812698,144.054459 226.944153,144.102570 256.535339,143.989273 
	C256.995361,143.898239 257.035187,144.133133 257.025330,144.692841 
	C257.004883,185.109039 256.994324,224.965515 256.983765,264.821991 
	C256.983765,264.821991 257.037750,265.011139 257.030670,265.109192 
z"/>
<path fill="#424566" opacity="1.000000" stroke="none" 
	d="
M257.448730,264.890259 
	C256.994324,224.965515 257.004883,185.109039 257.018616,144.811783 
	C262.168823,144.271957 267.315857,144.093521 272.463074,144.087357 
	C297.081146,144.057922 321.710693,143.600677 346.314606,144.193085 
	C378.831573,144.976044 403.372833,159.811859 417.830933,189.122910 
	C428.547272,210.848190 437.786194,233.302216 447.871887,255.739044 
	C444.027161,256.690735 440.014679,257.672028 435.956909,257.924042 
	C411.727631,259.429077 387.502655,261.164185 363.248138,262.064575 
	C328.149231,263.367554 293.026337,264.025421 257.448730,264.890259 
z"/>
<path fill="#616484" opacity="1.000000" stroke="none" 
	d="
M269.583679,348.947632 
	C269.978821,351.112610 269.957550,353.210480 269.581543,355.646881 
	C267.445679,355.014679 265.664581,354.043915 264.152832,352.830994 
	C264.602478,351.406647 264.782745,350.224487 264.963043,349.042297 
	C266.364441,348.988373 267.765869,348.934448 269.583679,348.947632 
z"/>
<path fill="#46496A" opacity="1.000000" stroke="none" 
	d="
M264.522949,348.980438 
	C264.782745,350.224487 264.602478,351.406647 263.758667,352.815704 
	C261.018005,352.835144 258.940826,352.627716 256.913391,352.329102 
	C256.963104,352.237854 256.981689,352.030884 256.979736,351.657959 
	C256.987244,350.539673 256.996735,349.794281 257.006226,349.048920 
	C257.006226,349.048920 256.989655,348.891052 256.965118,348.815491 
	C259.321320,348.799469 261.702087,348.859009 264.522949,348.980438 
z"/>
<path fill="#777BA0" opacity="1.000000" stroke="none" 
	d="
M244.239578,356.388458 
	C244.163467,354.246826 244.087357,352.105164 244.007385,349.507690 
	C245.395721,349.017151 246.787933,348.982483 248.594711,349.395264 
	C249.454666,350.980408 249.900070,352.118103 250.081665,353.479919 
	C247.958435,354.598846 246.098999,355.493652 244.239578,356.388458 
z"/>
<path fill="#656889" opacity="1.000000" stroke="none" 
	d="
M250.345459,353.255768 
	C249.900070,352.118103 249.454666,350.980408 249.009674,349.452026 
	C251.380890,349.027466 253.751709,348.993622 256.564392,349.004364 
	C256.996735,349.794281 256.987244,350.539673 256.628784,351.798279 
	C254.301697,352.626282 252.323578,352.941040 250.345459,353.255768 
z"/>
<path fill="#FEFEFF" opacity="1.000000" stroke="none" 
	d="
M57.838692,380.084503 
	C50.946003,383.600983 44.868248,381.916901 40.061138,377.285370 
	C35.751144,373.132874 33.667591,367.676483 35.996052,361.347839 
	C38.688522,354.029877 44.548325,349.699738 51.807095,350.003357 
	C58.974380,350.303101 64.956856,355.355499 66.691689,362.573853 
	C68.352661,369.484833 65.139061,376.041473 57.838692,380.084503 
M61.303535,361.666473 
	C60.414787,360.486755 59.594494,359.247192 58.624710,358.138336 
	C55.483421,354.546692 51.010925,353.668396 47.370102,355.696228 
	C44.288265,357.412689 41.384670,360.977539 40.284481,364.340210 
	C38.881065,368.629730 40.945969,373.440826 45.214100,375.164032 
	C48.510231,376.494812 53.215065,376.799805 56.379524,375.437531 
	C61.614635,373.183868 63.043205,368.034485 61.303535,361.666473 
z"/>
<path fill="#FDFDFF" opacity="1.000000" stroke="none" 
	d="
M77.253433,390.101990 
	C72.782997,386.262054 71.553787,381.413910 74.287315,377.683777 
	C76.609070,374.515533 79.778587,372.225372 84.074265,373.611755 
	C89.388481,375.326813 91.749405,379.142578 90.951286,384.222839 
	C90.058487,389.905823 85.175583,392.122223 77.253433,390.101990 
M75.997772,382.504944 
	C75.772865,386.761566 78.423447,388.751587 82.055603,388.790161 
	C85.161385,388.823151 87.669891,387.140625 88.028046,383.394257 
	C88.414009,379.356964 86.583069,376.731689 82.825432,376.262695 
	C79.199532,375.810150 76.383003,377.508728 75.997772,382.504944 
z"/>
<path fill="#606585" opacity="1.000000" stroke="none" 
	d="
M100.690437,436.619324 
	C92.820717,450.162903 80.543411,452.348969 66.811378,450.836304 
	C60.219101,450.110107 53.557728,449.554413 47.108372,448.112915 
	C40.332077,446.598328 38.988178,444.405609 38.990906,437.567657 
	C38.992359,433.926788 38.907547,430.186035 39.673439,426.667053 
	C41.062286,420.285858 44.075886,418.210449 50.383968,419.062195 
	C63.055576,420.773224 75.695221,422.721771 88.345474,424.589783 
	C93.853287,425.403107 99.354729,426.259613 105.872406,427.250580 
	C103.867470,430.896545 102.377625,433.605804 100.690437,436.619324 
z"/>
<path fill="#E1E5FA" opacity="1.000000" stroke="none" 
	d="
M250.081665,353.479919 
	C252.323578,352.941040 254.301697,352.626282 256.630737,352.171204 
	C256.981689,352.030884 256.963104,352.237854 256.949524,352.706604 
	C256.523926,354.523193 256.111877,355.871063 255.358246,357.265442 
	C242.579071,360.549042 236.625763,371.824554 242.925064,380.941772 
	C247.301773,373.184082 251.597656,365.569641 256.195221,358.220428 
	C256.654938,361.225708 256.812988,363.965759 256.775085,366.957245 
	C256.335846,367.793091 256.092499,368.377502 255.563232,369.140320 
	C253.826202,371.948578 252.375092,374.578430 250.591629,377.810608 
	C253.304596,377.810608 255.197754,377.810608 257.079163,377.880127 
	C257.067383,377.949615 256.972229,378.053680 256.985382,378.443909 
	C257.010651,380.134888 257.022736,381.435638 256.572693,382.795837 
	C252.197693,382.855225 248.284851,382.855225 243.560440,382.855225 
	C247.061584,388.566345 251.893341,389.804688 256.997314,390.921448 
	C257.003052,392.545746 257.014923,393.795654 257.026794,395.045532 
	C257.026825,395.045532 257.115021,395.209290 257.107483,395.302002 
	C254.652603,395.030823 252.205231,394.666901 249.378067,394.158417 
	C247.535797,393.092834 246.073318,392.171783 244.297791,391.148193 
	C232.719696,379.878021 232.662827,367.462463 244.033936,356.639709 
	C246.098999,355.493652 247.958435,354.598846 250.081665,353.479919 
z"/>
<path fill="#C6CFF8" opacity="1.000000" stroke="none" 
	d="
M257.034851,382.736420 
	C257.022736,381.435638 257.010651,380.134888 257.404785,378.408630 
	C259.505493,377.894684 261.199890,377.806244 263.819000,377.669556 
	C261.218201,373.505585 259.094635,370.105682 256.971039,366.705811 
	C256.812988,363.965759 256.654938,361.225708 256.125977,358.041992 
	C255.755005,357.598297 255.699844,357.218933 255.699829,357.218933 
	C256.111877,355.871063 256.523926,354.523193 256.899841,352.797821 
	C258.940826,352.627716 261.018005,352.835144 263.489319,353.057861 
	C265.664581,354.043915 267.445679,355.014679 269.551575,356.096924 
	C281.409302,367.910736 281.643494,380.113251 270.292175,390.949646 
	C267.799225,392.247467 265.552673,393.308594 263.063416,394.618286 
	C261.163025,394.974609 259.505402,395.082428 257.437256,395.117859 
	C257.014923,393.795654 257.003052,392.545746 257.060852,390.811676 
	C257.130524,390.327484 257.033905,390.092926 257.434784,390.215302 
	C262.925659,389.997437 267.224915,388.301819 270.332916,383.147614 
	C265.443909,383.147614 261.207123,383.147614 257.004089,383.047577 
	C257.037872,382.947540 257.034851,382.736420 257.034851,382.736420 
M271.750031,366.038757 
	C268.747681,360.997040 264.578857,357.800262 257.967834,357.259979 
	C262.605988,365.507721 266.952911,373.237549 271.588989,381.481567 
	C274.511444,376.176575 274.223328,371.488739 271.750031,366.038757 
z"/>
<path fill="#E5E9FF" opacity="1.000000" stroke="none" 
	d="
M457.382935,351.024689 
	C464.375336,348.465454 470.156647,350.529602 474.537872,355.293854 
	C478.615356,359.727814 480.191284,365.223969 477.784851,371.463745 
	C475.248444,378.040466 470.204407,381.000000 463.774719,381.903351 
	C456.995575,382.855774 449.454834,377.053467 447.452820,369.836060 
	C445.384247,362.378754 449.102570,355.089905 457.382935,351.024689 
M466.613220,355.374054 
	C465.467987,355.249115 464.323120,355.020782 463.177429,355.016296 
	C456.524902,354.990265 451.923309,359.625275 451.997925,366.216888 
	C452.068909,372.490295 456.764313,377.041077 463.122742,376.999115 
	C468.185913,376.965698 471.842346,374.213318 473.383087,369.275665 
	C475.208130,363.426941 473.635162,359.898010 466.613220,355.374054 
z"/>
<path fill="#E3E8FF" opacity="1.000000" stroke="none" 
	d="
M437.601044,375.355774 
	C441.373047,378.615936 442.371246,382.735748 440.019806,386.287598 
	C438.492432,388.594727 434.988312,390.148651 432.082855,390.848236 
	C428.402100,391.734497 425.168030,389.931885 423.687439,386.191498 
	C422.235870,382.524445 422.462494,378.794617 425.569183,376.113617 
	C428.522308,373.565094 431.971222,371.726685 435.954681,374.455109 
	C436.362976,374.734741 436.836212,374.919495 437.601044,375.355774 
M433.150635,376.190948 
	C430.803345,377.594025 427.673218,378.508026 426.383759,380.571960 
	C425.522766,381.950043 426.646393,385.493927 428.008820,387.130219 
	C430.385040,389.984131 434.939606,389.241577 437.104004,386.279205 
	C439.365845,383.183472 438.001526,379.028534 433.150635,376.190948 
z"/>
<path fill="#414668" opacity="1.000000" stroke="none" 
	d="
M414.321960,426.111603 
	C430.191406,423.862244 445.659821,421.789246 461.078400,419.395203 
	C470.365784,417.953125 474.532654,421.054291 475.028992,430.481293 
	C475.814667,445.405609 473.438660,448.349304 458.684967,449.816986 
	C452.078400,450.474213 445.407074,450.452850 438.783356,450.971649 
	C428.179626,451.802124 420.542999,446.961487 414.779938,438.610107 
	C412.476471,435.272156 410.598114,431.640808 408.210297,427.609528 
	C410.757477,426.957336 412.328705,426.555023 414.321960,426.111603 
z"/>
<path fill="#E7EBFF" opacity="1.000000" stroke="none" 
	d="
M61.469921,362.028839 
	C63.043205,368.034485 61.614635,373.183868 56.379524,375.437531 
	C53.215065,376.799805 48.510231,376.494812 45.214100,375.164032 
	C40.945969,373.440826 38.881065,368.629730 40.284481,364.340210 
	C41.384670,360.977539 44.288265,357.412689 47.370102,355.696228 
	C51.010925,353.668396 55.483421,354.546692 58.624710,358.138336 
	C59.594494,359.247192 60.414787,360.486755 61.469921,362.028839 
M58.587704,363.282776 
	C56.892864,359.174622 53.727898,357.425934 49.459873,358.147308 
	C45.827324,358.761292 42.796673,361.321320 43.319633,364.810516 
	C43.764572,367.779175 45.973076,371.337341 48.483791,372.965637 
	C53.787289,376.405182 59.041580,371.641083 58.587704,363.282776 
z"/>
<path fill="#E7EBFF" opacity="1.000000" stroke="none" 
	d="
M76.000412,382.101440 
	C76.383003,377.508728 79.199532,375.810150 82.825432,376.262695 
	C86.583069,376.731689 88.414009,379.356964 88.028046,383.394257 
	C87.669891,387.140625 85.161385,388.823151 82.055603,388.790161 
	C78.423447,388.751587 75.772865,386.761566 76.000412,382.101440 
M83.861938,385.368591 
	C85.437721,383.014130 86.008781,380.590546 82.834755,379.355286 
	C81.988724,379.026031 79.543396,380.440186 79.274857,381.441010 
	C78.498901,384.332886 79.556946,386.400452 83.861938,385.368591 
z"/>
<path fill="#686B8A" opacity="1.000000" stroke="none" 
	d="
M255.358261,357.265442 
	C255.699844,357.218933 255.755005,357.598297 255.824265,357.776733 
	C251.597656,365.569641 247.301773,373.184082 242.925064,380.941772 
	C236.625763,371.824554 242.579071,360.549042 255.358261,357.265442 
z"/>
<path fill="#646787" opacity="1.000000" stroke="none" 
	d="
M257.067017,390.437256 
	C251.893341,389.804688 247.061584,388.566345 243.560440,382.855225 
	C248.284851,382.855225 252.197693,382.855225 256.572693,382.795837 
	C257.034851,382.736420 257.037872,382.947540 257.006042,383.478760 
	C256.994141,386.037598 257.014008,388.065277 257.033905,390.092926 
	C257.033905,390.092926 257.130524,390.327484 257.067017,390.437256 
z"/>
<path fill="#484B6D" opacity="1.000000" stroke="none" 
	d="
M256.775085,366.957245 
	C259.094635,370.105682 261.218201,373.505585 263.819000,377.669556 
	C261.199890,377.806244 259.505493,377.894684 257.391663,378.018402 
	C256.972229,378.053680 257.067383,377.949615 257.048157,377.451904 
	C256.635651,374.290070 256.242401,371.626007 255.849167,368.961914 
	C256.092499,368.377502 256.335846,367.793091 256.775085,366.957245 
z"/>
<path fill="#6A6D8C" opacity="1.000000" stroke="none" 
	d="
M255.563232,369.140320 
	C256.242401,371.626007 256.635651,374.290070 257.059906,377.382385 
	C255.197754,377.810608 253.304596,377.810608 250.591629,377.810608 
	C252.375092,374.578430 253.826202,371.948578 255.563232,369.140320 
z"/>
<path fill="#484B6D" opacity="1.000000" stroke="none" 
	d="
M271.899414,366.392517 
	C274.223328,371.488739 274.511444,376.176575 271.588989,381.481567 
	C266.952911,373.237549 262.605988,365.507721 257.967834,357.259979 
	C264.578857,357.800262 268.747681,360.997040 271.899414,366.392517 
z"/>
<path fill="#474A6B" opacity="1.000000" stroke="none" 
	d="
M257.434784,390.215302 
	C257.014008,388.065277 256.994141,386.037598 256.972290,383.578796 
	C261.207123,383.147614 265.443909,383.147614 270.332916,383.147614 
	C267.224915,388.301819 262.925659,389.997437 257.434784,390.215302 
z"/>
<path fill="#CBD5FF" opacity="1.000000" stroke="none" 
	d="
M466.974182,355.540649 
	C473.635162,359.898010 475.208130,363.426941 473.383087,369.275665 
	C471.842346,374.213318 468.185913,376.965698 463.122742,376.999115 
	C456.764313,377.041077 452.068909,372.490295 451.997925,366.216888 
	C451.923309,359.625275 456.524902,354.990265 463.177429,355.016296 
	C464.323120,355.020782 465.467987,355.249115 466.974182,355.540649 
M455.041534,367.192596 
	C457.088684,372.774658 460.671875,375.079865 464.885284,373.525574 
	C469.728119,371.739075 471.908325,366.932037 469.965912,362.384949 
	C468.419220,358.764099 465.401947,357.590851 461.879181,358.106232 
	C457.311157,358.774445 455.018097,361.736115 455.041534,367.192596 
z"/>
<path fill="#CCD5FF" opacity="1.000000" stroke="none" 
	d="
M433.516724,376.330109 
	C438.001526,379.028534 439.365845,383.183472 437.104004,386.279205 
	C434.939606,389.241577 430.385040,389.984131 428.008820,387.130219 
	C426.646393,385.493927 425.522766,381.950043 426.383759,380.571960 
	C427.673218,378.508026 430.803345,377.594025 433.516724,376.330109 
M430.128296,385.359192 
	C431.707764,384.800171 433.582550,384.566437 434.726532,383.527771 
	C435.208252,383.090424 434.448578,380.728363 433.665527,379.680359 
	C433.246948,379.120178 430.726135,379.189026 430.616089,379.496735 
	C430.017822,381.170013 429.874908,383.006104 430.128296,385.359192 
z"/>
<path fill="#FEFEFF" opacity="1.000000" stroke="none" 
	d="
M58.717834,363.660889 
	C59.041580,371.641083 53.787289,376.405182 48.483791,372.965637 
	C45.973076,371.337341 43.764572,367.779175 43.319633,364.810516 
	C42.796673,361.321320 45.827324,358.761292 49.459873,358.147308 
	C53.727898,357.425934 56.892864,359.174622 58.717834,363.660889 
M52.576893,367.889435 
	C54.228939,366.136017 54.722374,364.255798 52.016899,363.380188 
	C51.146137,363.098358 49.697178,364.603058 48.512730,365.290466 
	C49.686016,366.306915 50.859299,367.323364 52.576893,367.889435 
z"/>
<path fill="#FAFBFF" opacity="1.000000" stroke="none" 
	d="
M83.513046,385.560913 
	C79.556946,386.400452 78.498901,384.332886 79.274857,381.441010 
	C79.543396,380.440186 81.988724,379.026031 82.834755,379.355286 
	C86.008781,380.590546 85.437721,383.014130 83.513046,385.560913 
z"/>
<path fill="#E5E9FF" opacity="1.000000" stroke="none" 
	d="
M455.025513,366.791870 
	C455.018097,361.736115 457.311157,358.774445 461.879181,358.106232 
	C465.401947,357.590851 468.419220,358.764099 469.965912,362.384949 
	C471.908325,366.932037 469.728119,371.739075 464.885284,373.525574 
	C460.671875,375.079865 457.088684,372.774658 455.025513,366.791870 
M463.154266,363.210144 
	C462.151703,364.000153 460.528076,364.665588 460.336884,365.618408 
	C460.174896,366.425720 461.518219,367.789520 462.501923,368.451721 
	C462.916779,368.730988 464.857605,367.787537 464.836182,367.491943 
	C464.738312,366.143280 464.189819,364.827332 463.154266,363.210144 
z"/>
<path fill="#E0E6FF" opacity="1.000000" stroke="none" 
	d="
M429.851807,385.072693 
	C429.874908,383.006104 430.017822,381.170013 430.616089,379.496735 
	C430.726135,379.189026 433.246948,379.120178 433.665527,379.680359 
	C434.448578,380.728363 435.208252,383.090424 434.726532,383.527771 
	C433.582550,384.566437 431.707764,384.800171 429.851807,385.072693 
z"/>
<path fill="#E7EBFF" opacity="1.000000" stroke="none" 
	d="
M52.304741,368.114624 
	C50.859299,367.323364 49.686016,366.306915 48.512733,365.290466 
	C49.697178,364.603058 51.146137,363.098358 52.016899,363.380188 
	C54.722374,364.255798 54.228939,366.136017 52.304741,368.114624 
z"/>
<path fill="#CDD6FF" opacity="1.000000" stroke="none" 
	d="
M463.478790,363.354858 
	C464.189819,364.827332 464.738312,366.143280 464.836182,367.491943 
	C464.857605,367.787537 462.916779,368.730988 462.501923,368.451721 
	C461.518219,367.789520 460.174896,366.425720 460.336884,365.618408 
	C460.528076,364.665588 462.151703,364.000153 463.478790,363.354858 
z"/>
</svg>